# xmcd CD database file
#
# Track frame offsets:
#	150
#	28700
#	51468
#	74053
#	94407
#	118815
#	145559
#	175918
#	199329
#	215718
#
# Disc length: 3256 seconds
#
# Revision: 0
# Processed by: cddbd v1.5.1PL0 Copyright (c) Steve Scherf et al.
# Submitted via: CDex 1.51
#
DISCID=a40cb60a
DTITLE=Kenny Wheeler and John Tayler - Where do we go from here?
DYEAR=2004
DGENRE=Jazz
TTITLE0=Summer night
TTITLE1=For Tracy
TTITLE2=Mabel
TTITLE3=Au Contraire
TTITLE4=Cancer N.1
TTITLE5=Squiggles
TTITLE6=One Two Three
TTITLE7=Where do we go from here?
TTITLE8=Dance
TTITLE9=Fordor
EXTD=YEAR: 2004
EXTT0=
EXTT1=
EXTT2=
EXTT3=
EXTT4=
EXTT5=
EXTT6=
EXTT7=
EXTT8=
EXTT9=
PLAYORDER=
